<svg xmlns="http://www.w3.org/2000/svg" width="132.811" height="78.215" viewBox="0 0 132.811 78.215"><defs><style>.a{fill:#8c8781;}.b{fill:#e4e4e4;}.c{fill:#161616;}.d{fill:#fff;}</style></defs><g transform="translate(0 0)"><path class="a" d="M-504.322,332.185c.509.431,1.644-.587,1.918-1.018.47-.626.7-2.622-.509-2.661-.978,0-.665,1.644-1.253,2.153-.352.274-.939.156-1.212.47-.392.469.077.9.469,1.135Z" transform="translate(617.523 -327.041)"/><path class="b" d="M-500.775,332.216c-.42-.84-1.89-5.775.21-6.4,1.785-.524,7.139,5.25,4.935,6.4Z" transform="translate(608.535 -325.778)"/><g transform="translate(80.407 36.156)"><path d="M-460.536,463.385a9.788,9.788,0,0,1,1.643,2,11.03,11.03,0,0,1-4.567-.414c-1.6-.417-1.8-.6-2.281-1.656A7.486,7.486,0,0,0-460.536,463.385Z" transform="translate(473.008 -425.609)"/><path class="b" d="M-466.459,396.542a10.3,10.3,0,0,1,.594-3.438l13.9.22c.061,3.912-1.763,8.041-2.339,11.858a62.007,62.007,0,0,1-.857,8.5,32.7,32.7,0,0,0-.725,8.624c0,2.653-.756,5.341.991,7.532a10.438,10.438,0,0,0,.9,1.038,7.485,7.485,0,0,1-5.2-.072c-.134-.3-.289-.658-.5-1.116-.972-1.848-1.74-2.064-1.458-4.1.168-1.776.593-3.438.642-5.083.305-4.182-1.255-7.771-2.582-11.749C-464.286,405.027-466.525,400.461-466.459,396.542Z" transform="translate(466.461 -393.104)"/></g><g transform="translate(28.059 12.598)"><path class="c" d="M-357.143,465.063c-1.514.253-4.29.379-5.677-.252a3.757,3.757,0,0,1-.8-.557,26.228,26.228,0,0,0,4.551-1.368A6.106,6.106,0,0,1-357.143,465.063Z" transform="translate(369.271 -401.853)"/><path class="b" d="M-386.424,396.3c1.64-2.9,3.154-4.794,3.406-8.327s-1.892-6.813-2.523-10.346a64.031,64.031,0,0,1-.5-7.065c-.126-2.9-.757-5.93-.631-8.832.252-4.794,2.27-9.967,6.561-12.491l17.916,11.607c.378,5.047-3.533,11.859-5.8,16.4-1.892,3.659-5.173,6.183-7.822,9.211-3.533,4.037-3.659,12.489-3.659,17.663,0,1.641-.126,2.9.883,4.164a9.693,9.693,0,0,0,2.112,1.986,26.233,26.233,0,0,1-4.551,1.368,11.084,11.084,0,0,1-2.859-3.48c-.379-1.514.756-4.163.5-5.929A9.992,9.992,0,0,0-386.424,396.3Z" transform="translate(386.693 -349.236)"/></g><path class="d" d="M-316.989,350.137c-1.64,2.775-5.677,4.542-7.947,7.065-3.533,3.911-4.542,7.57-4.542,12.742,0,5.046,2.27,17.033-4.795,18.546l-1.388.191.815,1.5s4.106-.554,5.619-3.078,3.533-8.579,2.9-12.995-.252-9.841.63-11.481,7.066-3.785,7.066-3.785Z" transform="translate(342.474 -337.056)"/><g transform="translate(97.892 0.034)"><path class="b" d="M-525.419,355.4c-1.77-2.186-4.674-1.279-6.871-2.9a5.7,5.7,0,0,0-.688,2.376c-.315,2.52-.105,3.674-2.625,4.935-2.163.926-2.8,2.562-1.442,4.8a43.1,43.1,0,0,0,4.172,1.18C-527.729,366.739-521.535,360.44-525.419,355.4Z" transform="translate(559.119 -338.183)"/><path class="d" d="M-519.126,346.837c.21,3.884,5.04,6.194,8.5,5.984,2.73-.315,4.934-1.47,7.873-1.05a15.789,15.789,0,0,1,2.128.5c-1.363-2.243-.721-3.878,1.442-4.8,2.519-1.26,2.309-2.414,2.624-4.935a5.7,5.7,0,0,1,.688-2.376c-.019-.013-.039-.024-.058-.039-2.1-1.574-3.884-4.2-5.459-6.3-2.205-2.835-3.674-3.254-7.349-3.254-1.575,0-4.829.63-5.984-.21l-1.365-1.155c-1.784-2.52-3.99-2.625-6.614-3.36,0,3.465.525,5.565,3.255,7.769" transform="translate(522.695 -325.84)"/></g><path class="c" d="M-534.152,362.191l-.045.042c-.026.026-.078.071-.117.115a2.762,2.762,0,0,0-.286.352.821.821,0,0,0-.156.752.8.8,0,0,0,.644.367,3.713,3.713,0,0,0,.462.048c.061,0,.131,0,.17,0h.063l.047-.038a1.6,1.6,0,0,0,.125-.1,2.192,2.192,0,0,0,.3-.336.84.84,0,0,0,.157-.8.839.839,0,0,0-.679-.394,2.864,2.864,0,0,0-.46-.025c-.06,0-.129.007-.166.009Z" transform="translate(663.958 -342.629)"/><path class="c" d="M-505.581,347.137a1.6,1.6,0,0,0-.813,2.331c1.02,1.456,1.864-.068,1.789-1.243C-504.666,347.257-505.118,347-505.581,347.137Z" transform="translate(620.704 -335.65)"/><g transform="translate(18.909 7.632)"><g transform="translate(31.764 0.044)"><path d="M-479.677,340.072c3.908.1,7.9.394,11.748.862a157.253,157.253,0,0,0,18.826,1.314c2.322-.009,4.662-.1,7.038-.3,3.7-.317,8.2-.284,11.936-1.23,1.214.768,2.4,1.62,2.506,2.463.821,4.923-4.718,3.929-7.179,5.57-2.528,1.9-5.825,5.6-7.089.2-1.182-5.051-4.372-2.37-7.222-.046h0a5.975,5.975,0,0,1-.774,2.636c-.757,1.514-1.388,2.27-1.262,4.037s.883,2.272-.379,4.037c-2.27,2.9-5.551,3.281-8.831,3.281-3.407,0-5.3,2.4-8.453,3.406-2.272.757-4.543.5-5.425-2.018-.5-1.766.5-2.65.757-4.164.505-2.776-2.018-2.019-3.533-3.912-2.776-3.533,2.019-4.92,1.893-8.075-.126-2.523-3.658-3.406-4.416-5.8A7,7,0,0,1-479.677,340.072Z" transform="translate(479.708 -340.072)"/></g><g transform="translate(0 1.438)"><path d="M-479.032,384.56c-1.009-2.271-2.649-1.009-4.162-2.65-1.893-1.892-.884-7.569,1.513-8.327,1.893-.5,4.795,1.514,6.182.379,1.641-1.261-.126-3.533,2.524-4.163,4.274-1.019,5.758,7.481,9.483,8.955-.171.167-.346.335-.525.507-1.64,1.514-3.785,2.145-5.425,3.785a46.867,46.867,0,0,0-3.753,5,22.067,22.067,0,0,0-1.34,2.181,8.627,8.627,0,0,1-1.721-.878C-478.4,387.967-478.274,386.706-479.032,384.56Z" transform="translate(549.826 -355.19)"/><path d="M-353.717,369.64c-.126-2.9-.757-5.929-.63-8.832a17.613,17.613,0,0,1,2.977-9.138,15.144,15.144,0,0,1,11.639-8.8l1.306-.2c1.529,1.469.271,4.666-1.666,6.787-1.767,1.766-4.29,3.407-4.037,6.308.253,2.65,2.4,5.3,2.9,8.075.252,1.514.5,3.407-.5,4.668-.883,1.135-2.144.757-3.28,1.388-2.272,1.262-1.388,3.28-2.65,5.3a5.275,5.275,0,0,1-5.173,1.766,3.438,3.438,0,0,1-.351-.122c-.009-.044-.019-.086-.026-.13A64.033,64.033,0,0,1-353.717,369.64Z" transform="translate(354.364 -342.667)"/></g><path d="M-440.43,469.033a11.031,11.031,0,0,1-4.542-.631c-1.086-.339-1.513-.534-1.815-.975a13.455,13.455,0,0,0,4.287-1.1A16.244,16.244,0,0,1-440.43,469.033Z" transform="translate(506.683 -398.483)"/><path d="M-340.293,469.149c-1.514.252-4.29.378-5.677-.253-.009,0-.02-.011-.03-.015a22.683,22.683,0,0,0,3.966-1.757A5.759,5.759,0,0,1-340.293,469.149Z" transform="translate(352.421 -398.851)"/><path class="d" d="M-489.808,400.069a9.995,9.995,0,0,0-3.028-5.93c1.64-2.9,3.154-4.794,3.407-8.326.25-3.489-1.837-6.733-2.5-10.216a3.462,3.462,0,0,0,.351.122,5.275,5.275,0,0,0,5.173-1.766c1.262-2.019.378-4.037,2.65-5.3,1.136-.631,2.4-.253,3.28-1.388,1.009-1.262.757-3.154.5-4.668-.5-2.776-2.649-5.424-2.9-8.075-.252-2.9,2.271-4.542,4.037-6.308,1.936-2.121,3.2-5.318,1.666-6.787a85.5,85.5,0,0,1,13.145-1.438c.9,0,1.8.021,2.712.044a7.008,7.008,0,0,0,.141,2.251c.758,2.4,4.29,3.28,4.416,5.8.126,3.154-4.668,4.542-1.892,8.075,1.514,1.892,4.038,1.135,3.533,3.912-.252,1.513-1.261,2.4-.757,4.164.883,2.523,3.153,2.775,5.425,2.018,3.154-1.009,5.046-3.406,8.453-3.406,3.281,0,6.561-.378,8.831-3.281,1.262-1.766.505-2.271.379-4.037s.505-2.523,1.262-4.037a5.971,5.971,0,0,0,.774-2.635c2.85-2.324,6.04-5.006,7.222.046,1.264,5.4,4.561,1.7,7.089-.2,2.462-1.641,8-.647,7.179-5.57-.105-.843-1.293-1.694-2.506-2.463a15.923,15.923,0,0,0,2.069-.663l7.57,15.771c-.119,4.4-1.811,6.449-4.648,9.208-3.725-1.474-5.209-9.974-9.483-8.955-2.65.63-.883,2.9-2.523,4.163-1.388,1.136-4.289-.883-6.182-.379-2.4.758-3.406,6.435-1.513,8.327,1.513,1.641,3.154.379,4.162,2.65.758,2.145.631,3.406,2.776,4.794a8.63,8.63,0,0,0,1.721.877,7.918,7.918,0,0,1-1.079,1.5c-2.294,2.366-3.145,3.122-6.32,3.963.005-.024,0-.012,0,0-2.523,3.126-2.775,6.659-3.533,9.308a32.674,32.674,0,0,0-1.135,8.579c-.126,2.65-1.01,5.3.631,7.57.1.156.214.3.327.45a13.448,13.448,0,0,1-4.286,1.1,13.018,13.018,0,0,1-.834-1.927c-.884-1.892-1.641-2.144-1.262-4.164.252-1.766.756-3.406.883-5.047.5-4.164-.883-7.822-2.018-11.86-.161-.6-.348-1.225-.546-1.863-2.993.252-6,.4-8.966.614-7.007.507-13.965.594-20.894-.769-4.254-.838-8.2-1.717-11.642-3.526-1.257,1.3-2.566,2.551-3.75,3.9-3.532,4.037-3.659,12.49-3.659,17.663,0,1.64-.126,2.9.883,4.163a10.864,10.864,0,0,0,2.3,2.138,22.679,22.679,0,0,1-3.966,1.757c-.906-.418-3.381-3.023-3.629-4.022C-490.691,404.484-489.555,401.835-489.808,400.069Z" transform="translate(493.104 -339.99)"/><path class="d" d="M-449.847,418.074h0C-449.844,418.062-449.841,418.05-449.847,418.074Z" transform="translate(517.74 -376.135)"/><path class="d" d="M-449.838,418.087h0C-449.843,418.11-449.841,418.1-449.838,418.087Z" transform="translate(517.731 -376.147)"/></g><path class="c" d="M-295.182,419.474c-.884-3.407-5.425-1.01-7.823-2.145.631,1.892.631,3.911,2.649,5.046a3.938,3.938,0,0,0,5.3-1.514Z" transform="translate(303.005 -368.164)"/><path class="a" d="M-488.345,333.413a4.11,4.11,0,0,1-2.56-1.444c-.744-1.018-1.291-.157-1.252.822.078,1.644,3.929,2.347,3.812.782Z" transform="translate(596.892 -328.432)"/></g></svg>