<?xml version="1.0" encoding="utf-8"?>
<!-- Generator: Adobe Illustrator 27.0.0, SVG Export Plug-In . SVG Version: 6.00 Build 0)  -->
<svg version="1.1" id="Layer_1" xmlns="http://www.w3.org/2000/svg" xmlns:xlink="http://www.w3.org/1999/xlink" x="0px" y="0px"
	 viewBox="0 0 37.5 10" style="enable-background:new 0 0 37.5 10;" xml:space="preserve">
<style type="text/css">
	.st0{fill:#FFFFFF;}
	.st1{fill:#F16531;}
</style>
<g>
	<path class="st0" d="M0,0h37.3v6.7c0,1.8-1.5,3.3-3.3,3.3H3.3C1.5,10,0,8.5,0,6.7V0z"/>
	<path class="st1" d="M9.6,2l-1-0.6c-0.1,0-0.1,0-0.2,0.1l-2.3,4L4.8,4.3c0,0-0.1,0-0.1,0c0,0-0.1,0-0.1,0L3.9,5.1
		c0,0.1,0,0.2,0,0.2l2.5,2.2c0,0,0.1,0,0.1,0c0,0,0.1,0,0.1-0.1l3.1-5.4C9.7,2.1,9.7,2,9.6,2z"/>
	<path class="st1" d="M16.9,6h0.8v0.9h-0.9c-0.1,0-0.3,0-0.5-0.1c-0.1,0.5-0.4,0.9-0.8,1.2c-0.4,0.2-0.8,0.4-1.3,0.4
		c-0.7,0-1.3-0.2-1.7-0.7c-0.3-0.4-0.4-0.8-0.4-1.3c0-0.4,0.1-0.7,0.3-1l0.9-0.2C13.1,5.4,13,5.8,13,6.2c0,0.4,0.1,0.7,0.3,0.9
		c0.2,0.2,0.5,0.3,0.9,0.3c0.4,0,0.7-0.1,0.9-0.3c0.2-0.2,0.3-0.5,0.3-0.8V2.5L16.3,2v3.4c0,0.2,0,0.3,0.1,0.4
		C16.5,5.9,16.7,6,16.9,6z M22,6h0.7v0.9h-0.8c-0.4,0-0.7-0.1-0.9-0.3C20.7,6.9,20.4,7,19.9,7c-0.5,0-0.8-0.1-1.1-0.4
		c-0.2,0.2-0.5,0.3-0.9,0.3h-0.8V6h0.7c0.2,0,0.3,0,0.4-0.1c0.1-0.1,0.1-0.2,0.1-0.4V5.2c0-0.6,0.2-1,0.5-1.4
		c0.3-0.3,0.6-0.4,1.1-0.4c0.5,0,0.9,0.2,1.2,0.6c0.2,0.3,0.3,0.7,0.3,1.2v0.2c0,0.2,0,0.3,0.1,0.4C21.6,5.9,21.8,6,22,6z M19.9,6.1
		c0.4,0,0.6-0.3,0.6-0.9c0-0.6-0.2-0.9-0.6-0.9c-0.4,0-0.6,0.3-0.6,0.9C19.3,5.8,19.5,6.1,19.9,6.1z M22.9,2.9c-0.1,0-0.3,0-0.4-0.1
		c-0.1-0.1-0.1-0.2-0.1-0.4c0-0.1,0-0.3,0.1-0.4c0.1-0.1,0.2-0.1,0.4-0.1c0.2,0,0.3,0,0.4,0.1c0.1,0.1,0.1,0.2,0.1,0.4
		C23.4,2.7,23.2,2.9,22.9,2.9z M24,2.9c-0.1,0-0.3,0-0.4-0.1c-0.1-0.1-0.1-0.2-0.1-0.4c0-0.1,0-0.3,0.1-0.4c0.1-0.1,0.2-0.1,0.4-0.1
		c0.2,0,0.3,0,0.4,0.1c0.1,0.1,0.1,0.2,0.1,0.4C24.5,2.7,24.4,2.9,24,2.9z M24.8,6h0.7v0.9h-0.8c-0.4,0-0.7-0.1-0.9-0.3
		c-0.2,0.2-0.5,0.3-0.9,0.3h-0.8V6h0.7c0.2,0,0.3,0,0.4-0.1c0.1-0.1,0.1-0.2,0.1-0.4V4l0.9-0.5v1.9c0,0.2,0,0.3,0.1,0.4
		C24.5,5.9,24.7,6,24.8,6z M29.1,6h0.6v0.9H29c-0.4,0-0.7-0.1-0.9-0.3c-0.2,0.2-0.5,0.3-0.9,0.3h-2.1V6h2c0.4,0,0.5-0.2,0.5-0.5v0
		c0-0.3-0.1-0.5-0.3-0.7c-0.2-0.2-0.5-0.3-0.8-0.3c-0.3,0-0.5,0.1-0.8,0.2V3.7L27.2,2h1l-1.4,1.5c0.4,0,0.7,0.2,1,0.4
		c0.5,0.3,0.7,0.8,0.7,1.5v0c0,0.2,0,0.3,0.1,0.4C28.8,5.9,28.9,6,29.1,6z M30.5,4.8c0-0.4,0.1-0.8,0.4-1.1c0.2-0.2,0.6-0.3,0.9-0.3
		c0.5,0,0.9,0.2,1.2,0.5c0.2,0.3,0.4,0.7,0.4,1.2c0,0.6-0.1,1-0.4,1.3c-0.3,0.3-0.6,0.4-1,0.4c-0.4,0-0.7-0.1-1-0.3
		c-0.2,0.2-0.5,0.3-0.9,0.3h-0.8V6h0.7c0.2,0,0.3,0,0.4-0.1c0.1-0.1,0.1-0.2,0.1-0.4V4.8z M31.4,5.5c0,0.3,0.1,0.4,0.4,0.4
		c0.4,0,0.6-0.3,0.6-0.9c0-0.5-0.2-0.8-0.6-0.8c-0.3,0-0.4,0.2-0.4,0.5V5.5z"/>
</g>
</svg>
