<svg xmlns="http://www.w3.org/2000/svg" width="88.066" height="80.561" viewBox="0 0 88.066 80.561"><defs><style>.a{fill:#e4e4e4;}.b{fill:#161616;}.c{fill:#c9bba8;}.d{fill:#fff;}</style></defs><path class="a" d="M-64.117,199.511c-.2-2.323-3.113-2.6-5-2.492-2.1.152-4.251,1.219-6.349.96-1.2-.12-2.779-1.167-3.152.59-.686,2.91,4.53,4.223,6.443,4.019,2.419-.17,4.575-1.648,6.994-1.817Z" transform="translate(137.347 -187.968)"/><path class="a" d="M-181.178,237.064c-3.224,1.357-7.8,1.357-9.33-2.714-6.277,4.241,2.545,12.892,7.8,7.124Z" transform="translate(192.677 -206.096)"/><g transform="translate(11.499 38.833)"><path class="a" d="M-149.3,256.774l-16.285-1.867c1.527,5.6,1.527,16.625-4.749,19.679a45.89,45.89,0,0,1,5.2,15.866,12.619,12.619,0,0,0,5.28.21,13.14,13.14,0,0,1-2.85-5.729c-.679-2.714-1.017-7.295.679-9.33,2.884-3.562,8.142-4.41,10.856-8.481C-149.129,263.9-149.3,260.505-149.3,256.774Z" transform="translate(170.333 -254.907)"/><path class="a" d="M-160.223,323.975c.1.824.18,1.643.225,2.453a31.882,31.882,0,0,0,6.954.34c-.661-.991-1.3-1.8-1.9-2.583A12.621,12.621,0,0,1-160.223,323.975Z" transform="translate(165.426 -288.43)"/></g><g transform="translate(54.626 36.289)"><path class="a" d="M-71.277,290.328c-.053-.106-.107-.217-.158-.331-1.019-2.205-1.867-4.58-2.715-6.785a33.82,33.82,0,0,1-2.544-10.857c-.34-7.633,4.58-14.418,3.053-22.392l-12.892,7.464c3.054,5.09,3.9,11.2,3.732,16.964,3.223,3.223,5.6,6.276,6.446,10.857.2,1.269.142,2.9.3,4.4A15.238,15.238,0,0,0-71.277,290.328Z" transform="translate(86.533 -249.963)"/><path class="a" d="M-66.17,327.078a3.208,3.208,0,0,0,.186,1.175c.414.762,2.51.929,3.675.97,2.711.094,1.738.173.916-1.465A15.238,15.238,0,0,1-66.17,327.078Z" transform="translate(76.65 -287.392)"/></g><path class="b" d="M-57.438,191.723c0-3.585-.9-7.569-4.084-9.561-2.788-1.792-5.278-2.888-8.565-2.688,5.877,2.49,10.258,7.071,9.96,12.25Z" transform="translate(133.176 -179.45)"/><path class="a" d="M-54.5,229.616c2.933,1.334,3.556,4.534,5.955,6.4a2.451,2.451,0,0,1-.444-1.778,3.359,3.359,0,0,0,1.866,1.956c-1.6-2.222-2.31-5.156.623-6.579V227.66l-6.134-.8H-54.5Z" transform="translate(125.611 -202.461)"/><path class="b" d="M-67.015,192.954c-1.693-4.78-7.868-8.963-12.749-10.556,7.371.2,15.138,3.685,15.737,11.752a1.98,1.98,0,0,1-2.489,0Z" transform="translate(137.873 -180.881)"/><path class="c" d="M-29.5,225.441a1.462,1.462,0,0,1,.168-.055,1.911,1.911,0,0,1,.368-.061,1.028,1.028,0,0,1,.744.231.863.863,0,0,1,.319.63,2.376,2.376,0,0,1,.01.372c0,.1-.015.179-.015.179a1.15,1.15,0,0,1-.158.075,1.564,1.564,0,0,1-.366.1,1.14,1.14,0,0,1-.822-.2,1.019,1.019,0,0,1-.307-.716,1.924,1.924,0,0,1,.023-.374A1.471,1.471,0,0,1-29.5,225.441Z" transform="translate(113.508 -201.715)"/><path class="d" d="M-99.68,214.22c-.889-2.934-4.445-3.29-6.4-5.334-1.6-1.778-2.311-4.178-4.09-5.778-1.9-1.729-4.728-1.018-7.331-.9-1.226-.821-3.238-.427-4.611.03-1.992.7-3.785,2.291-5.876,2.59-1.195.2-2.988-.4-2.889,1.395.082,2.468,3.766,2.828,6.055,2.486q-.148.415-.281.828h0v0c-.043.133-.084.265-.125.4-1.088,2.816-6.713,4.54-9.306,5.188a24.005,24.005,0,0,0-6.276,3.054c-2.544,1.866-5.6,1.866-8.651,2.036-3.9.169-8.651.678-12.553-.17-2.375-.508-4.411-1.357-7.125-1.7-4.41-.339-8.651,1.018-10.008,5.768-1.743,5.941-.487,10.735,2.536,14.227-.016,5.146-1.411,10.712-5.589,12.745a45.874,45.874,0,0,1,5.2,15.866c.1.824.18,1.644.225,2.454a31.887,31.887,0,0,0,6.955.34c-.661-.992-1.3-1.8-1.9-2.583a13.152,13.152,0,0,1-2.85-5.729c-.677-2.714-1.017-7.294.679-9.33,2.61-3.224,7.16-4.232,10.013-7.412.889.135,1.793.235,2.709.288,5.809.336,11.551,1.629,17.391,1.464,2.352-.067,4.419-1.055,6.73-1.011a21.251,21.251,0,0,0,2.336-.088,40.012,40.012,0,0,1,.515,7.948c3.223,3.223,5.6,6.275,6.446,10.856.2,1.269.141,2.9.3,4.4a4.862,4.862,0,0,1,.185,1.175c-.185,1.186,2.337,1.028,3.5,1.069,2.71.093,1.91.074,1.088-1.564-.054-.107-.108-.217-.16-.331-1.017-2.205-1.866-4.58-2.714-6.786a33.849,33.849,0,0,1-2.545-10.856,27.024,27.024,0,0,1,1.184-8.2,14.242,14.242,0,0,0,6.346-6.384,29.633,29.633,0,0,0,1.927-7.548,32.947,32.947,0,0,1,4.224-11.212c.035-.059.081-.153.134-.269a37.084,37.084,0,0,1,5.436.132c2.045.356,3.822,1.067,5.867.8C-100.836,218.309-98.969,216.442-99.68,214.22Z" transform="translate(187.592 -190.264)"/><path class="c" d="M-54.695,228.521s-.174-.037-.476-.111a3.772,3.772,0,0,0-.544-.067c-.2-.028-.453,0-.71-.018-.526.005-1.137.046-1.815.03a4.951,4.951,0,0,1-.517-.029,3.059,3.059,0,0,1-.533-.07c-.182-.044-.355-.068-.547-.132l-.5-.177a6.683,6.683,0,0,1-.977-.521,2.857,2.857,0,0,1-.435-.315,3.639,3.639,0,0,1-.394-.345c-.119-.124-.246-.237-.351-.364l-.3-.381a6.049,6.049,0,0,1-.461-.748,4.092,4.092,0,0,1-.292-.68c-.064-.206-.124-.385-.163-.537-.08-.3-.119-.476-.119-.476s.081.158.212.437c.061.141.149.308.247.5a6.3,6.3,0,0,0,.369.6c.146.214.321.435.508.66l.307.331c.11.108.23.21.346.318a3.356,3.356,0,0,0,.38.3,3.574,3.574,0,0,0,.411.276,6.305,6.305,0,0,0,.887.457l.5.185c.141.05.317.08.471.121a7.09,7.09,0,0,0,.976.134c.646.051,1.273.066,1.806.128a5.351,5.351,0,0,1,.728.125,3.934,3.934,0,0,1,.544.16C-54.854,228.442-54.695,228.521-54.695,228.521Z" transform="translate(130.138 -200.868)"/><g transform="translate(23.73 43.012)"><path class="c" d="M-146.568,274.444s.1-.162.277-.438l.328-.5.1-.148.026-.039s.019-.028,0,0l.01-.022.039-.087.173-.366.392-.822c.1-.3.214-.61.328-.933a9.537,9.537,0,0,0,.28-1.024,7.473,7.473,0,0,0,.215-1.079,9.667,9.667,0,0,0,.154-1.094c.027-.365.093-.719.1-1.07s.049-.688.072-1.008.036-.627.051-.908c.041-.564.075-1.033.1-1.362s.049-.517.049-.517.086.751.148,1.881c.037.565.047,1.226.035,1.937,0,.355-.035.723-.062,1.1a9.937,9.937,0,0,1-.142,1.13,7.872,7.872,0,0,1-.241,1.116l-.154.539a2.942,2.942,0,0,1-.183.519l-.415.959c-.155.286-.324.54-.47.782l-.215.344-.052.08-.013.02a.141.141,0,0,1-.025.032l-.031.034-.119.132-.4.441C-146.435,274.31-146.568,274.444-146.568,274.444Z" transform="translate(146.568 -263.026)"/></g><path class="b" d="M-46.05,213.131a.638.638,0,0,0-.087.031c-.266.121-.339.456-.376.718-.064.442-.064,1.634.7,1.454s.5-1.376.294-1.857C-45.617,213.242-45.8,213.064-46.05,213.131Z" transform="translate(121.748 -195.79)"/><path class="c" d="M-44.65,235.592a1.347,1.347,0,0,1,.215.279,2.369,2.369,0,0,1,.267.666,2.385,2.385,0,0,1,.054.719,1.407,1.407,0,0,1-.071.351,1.35,1.35,0,0,1-.216-.279,2.353,2.353,0,0,1-.266-.666,2.419,2.419,0,0,1-.053-.719A1.421,1.421,0,0,1-44.65,235.592Z" transform="translate(120.868 -206.699)"/></svg>