<svg xmlns="http://www.w3.org/2000/svg" width="87.195" height="77.874" viewBox="0 0 87.195 77.874"><defs><style>.a{fill:#e4e4e4;}.b{fill:#bfb3a0;}.c{fill:#fff;}.d{fill:#161616;}.e{fill:#c9bba8;}</style></defs><path class="a" d="M-326.835,134.342a15.723,15.723,0,0,0,.957,7.532c.958,2.192,3.834,2.876,5.2,4.794-1.643,1.1-3.286.274-4.93-.138-2.327-.684-2.876-1.232-3.834-3.561-1.369-3.286-1.369-7.121-1.918-10.545Z" transform="translate(344.751 -71.102)"/><path class="b" d="M-319.562,95.231c.41,1.369-.548,2.6-.548,3.835,0,1.918,1.916,4.246-.822,5.341a3.081,3.081,0,0,1-1.781,4.93c.959,2.6-1.094,2.877-2.6,4.246-1.369,1.1-2.192,2.74-3.151,3.835-2.6,2.876-6.3.137-7.8-2.739-.96-2.191-2.329-3.7-2.329-6.162a19.246,19.246,0,0,0,0-5.615c-.957-4.93-1.917-7.67.822-12.463V90.3" transform="translate(348.161 -53.63)"/><path class="a" d="M-258.412,127.906c-.273,4.247-1.1,10.819,1.78,13.969.548.548,2.877,1.918,2.192,2.876-.411.822-3.151-.274-3.835-.548-1.369-.822-1.369-.685-1.917-2.192-1.1-3.15-.959-6.847-1.1-10Z" transform="translate(315.688 -69.228)"/><path class="b" d="M-255.51,97.717c-1.369,2.328-1.1,2.739-1.233,5.067s-1.643,1.781-2.327,3.288c-.548,1.095.684,2.464.136,4.108a10.729,10.729,0,0,1-1.369,2.054,7.337,7.337,0,0,0-.686,1.507c-1.095,1.507-2.327,1.917-3.423,3.15-1.095,1.1-.273,2.328-2.6,2.6-1.1.138-2.192.138-2.192-1.369-3.7.137-4.382-3.971-5.2-6.848-.274-1.233-3.287-6.3-2.054-7.532-1.233-.822-1.918-3.287-.411-4.246" transform="translate(322.51 -56.706)"/><path class="a" d="M-231.805,34.131c.959-.685,1.78-3.425,1.232-4.93-.411-1.233-1.232-2.055-2.465-1.233-1.644.959-1.369,4.246-1.369,5.888Z" transform="translate(304.545 -27.637)"/><path class="a" d="M-235.324,40.839c2.6,1.1,3.151,4.52,5.341,6.3,2.466,2.054,6.849,3.7,7.943,6.984,1.234,3.835-3.148,6.3-6.3,6.575-2.328.273-3.423-.822-5.478-1.643-1.506-.685-3.423-.685-4.93-1.371-6.436-2.19-9.587-13.694-2.191-16.708Z" transform="translate(309.022 -33.113)"/><path class="c" d="M-277.529,40.456c1.643,1.781,4.929-3.7.547-3.7,1.1-2.876-2.055-4.519-4.109-2.465-.411-3.287-4.519-.959-5.2,1.1-2.464-1.369-5.752-1.369-6.026,2.054-2.054-1.095-3.15.138-4.246,1.644-.959,1.369-1.369,2.875-2.739,4.382-2.327,2.739-7.395-2.876-9.449,1.506-1.506-2.328-4.246-1.37-5.616.411a5.612,5.612,0,0,0-8.216.685c-.959-2.19-3.151-.548-4.383.274-1.369-1.643-7.258-1.78-7.942.685-.138-3.014-7.122-2.6-7.259.136-.822-1.369-3.15-1.643-4.519-1.232-2.192.821-2.74,2.876-3.014,4.93-3.286-1.643-3.011,5.615-3.286,6.848-.273,1.369-1.095,2.19-1.095,3.7,0,1.918,1.232,3.7,1.095,5.341-.136,2.192-1.369,4.383-1.232,6.848.137,2.054,1.232,3.7,2.328,5.478,2.055,3.013,5.067,7.122,8.765,4.52,2.055,5.2,10.135,1.917,14.244,2.191a16.532,16.532,0,0,1,2.6,0c.823.274,1.1.822,2.055,1.233,2.192,1.1,5.068,1.1,6.712-.959,2.192,1.1,4.518,2.192,6.848,1.232,2.876-1.232,1.78-1.506,4.93-.548.959.138,2.6.822,3.423.274s.549-1.644,1.1-2.055,1.371-.137,2.055-.548c.959-.548,1.1-1.643,1.644-2.191,1.232-.822,3.423-.685,4.383-2.465.411-.685.136-1.644.411-2.192.548-.959,1.781-1.232,2.466-2.055.958-1.369,1.095-2.6,2.19-3.7,1.1-1.232,3.287-2.6,1.643-4.382,2.055-1.371,3.425-2.739,1.234-4.52,2.054-.959,4.792-3.835,2.464-6.026,2.054-3.7-1.233-2.6-2.054-5.478-.685-2.054,1.917-5.067-1.507-6.026.959-1.232.959-2.876-.685-3.287,1.506,0,.959-1.918,1.37-3.013.684,1.369,2.054.547,2.465-.548.958,2.054,2.327,2.054,4.381,2.054Z" transform="translate(354.241 -29.717)"/><path class="a" d="M-244.373,39.272c-.137-1.918-.959-5.068-3.287-5.89-1.506-.685-2.328-.137-2.192,1.643s2.192,3.287,3.7,4.109Z" transform="translate(310.95 -29.902)"/><path class="d" d="M-212.853,63.246a1.7,1.7,0,0,0,.022-.194,2.232,2.232,0,0,0-.008-.406c-.02-.145-.009-.279-.034-.383a.51.51,0,0,0-.126-.253.542.542,0,0,0-.276-.146,1.375,1.375,0,0,0-.356-.024l-.391.021-.2.015a1,1,0,0,0-.105.153,1.224,1.224,0,0,0-.142.387,1.019,1.019,0,0,0,.023.472.963.963,0,0,0,.219.373.922.922,0,0,0,.4.229.835.835,0,0,0,.449.015,2.018,2.018,0,0,0,.36-.16A1.625,1.625,0,0,0-212.853,63.246Z" transform="translate(296.275 -41.824)"/><path class="a" d="M-268.73,131.409c-.274,4.246-1.1,10.819,1.78,13.969.548.548,2.876,1.917,2.192,2.876-.411.822-3.149-.274-3.835-.548-1.368-.822-1.368-.685-1.917-2.192-1.1-3.15-.959-6.848-1.1-10Z" transform="translate(319.968 -70.681)"/><path class="c" d="M-265.828,101.22c-1.37,2.328-1.1,2.739-1.232,5.067s-1.644,1.78-2.329,3.287c-.547,1.095.685,2.464.137,4.108a10.754,10.754,0,0,1-1.368,2.054,7.276,7.276,0,0,0-.686,1.507c-1.1,1.506-2.327,1.917-3.422,3.15-1.1,1.1-.274,2.329-2.6,2.6-1.1.137-2.192.137-2.192-1.369-3.7.136-4.382-3.972-5.2-6.848-.273-1.232-3.286-6.3-2.053-7.532-1.233-.823-1.917-3.288-.411-4.246" transform="translate(326.79 -58.159)"/><path class="e" d="M-263.934,103.56s-.04.022-.1.064-.145.117-.24.181-.184.139-.3.206a3.772,3.772,0,0,1-.329.2,3.64,3.64,0,0,1-.351.162c-.115.061-.238.082-.344.133s-.2.065-.274.1-.114.05-.114.05a1.156,1.156,0,0,0,.1.066,1.171,1.171,0,0,0,.293.125,1.217,1.217,0,0,0,.452.033,1.033,1.033,0,0,0,.258-.048l.255-.1c.078-.049.151-.106.224-.159a.917.917,0,0,0,.182-.187,1.28,1.28,0,0,0,.228-.4,1.062,1.062,0,0,0,.057-.3A1.175,1.175,0,0,0-263.934,103.56Z" transform="translate(317.638 -59.129)"/><path class="e" d="M-269.043,109.393s-.048-.005-.128-.006a1.4,1.4,0,0,1-.307-.009,1.5,1.5,0,0,0-.167-.019,1.386,1.386,0,0,0-.193-.041,1.2,1.2,0,0,1-.2-.05.9.9,0,0,1-.2-.059,2.882,2.882,0,0,1-.393-.146c-.135-.04-.237-.119-.355-.16s-.193-.109-.267-.14-.119-.054-.119-.054a.992.992,0,0,0,.026.123,1.143,1.143,0,0,0,.044.14.6.6,0,0,0,.081.172,1.3,1.3,0,0,0,.317.356,1.935,1.935,0,0,0,.225.156l.262.109a1.464,1.464,0,0,0,.279.057.891.891,0,0,0,.276.008,2.139,2.139,0,0,0,.255-.039,1.449,1.449,0,0,0,.228-.095.671.671,0,0,0,.256-.2C-269.071,109.432-269.043,109.393-269.043,109.393Z" transform="translate(319.87 -61.265)"/><path class="e" d="M-299.091,73.839a4.192,4.192,0,0,1,.04.5,1.006,1.006,0,0,1-.008.233,1.19,1.19,0,0,1-.035.223.939.939,0,0,1-.169.375.82.82,0,0,1-.286.24,1.267,1.267,0,0,1-.179.061.846.846,0,0,1-.194.026,1.3,1.3,0,0,1-.406-.033,2,2,0,0,1-.406-.135,2.864,2.864,0,0,1-.388-.209l-.339-.2-.1.4c-.023.088-.036.179-.051.271a1.548,1.548,0,0,1-.1.242c-.012.046-.048.066-.071.1l-.076.1a.843.843,0,0,1-.1.065c-.036.017-.066.057-.108.06-.083.006-.165.067-.26.046a1,1,0,0,1-.288-.037,1.649,1.649,0,0,1-.294-.106c-.092-.053-.191-.1-.293-.156.069.087.139.177.216.264a1.249,1.249,0,0,0,.278.218.97.97,0,0,0,.342.142,1.115,1.115,0,0,0,.394.021.7.7,0,0,0,.195-.061,1.339,1.339,0,0,0,.19-.087,1.473,1.473,0,0,0,.295-.287,2.026,2.026,0,0,0,.187-.351c.036-.122.073-.246.1-.371l-.441.2a3.388,3.388,0,0,0,.473.276,1.919,1.919,0,0,0,.533.17,1.642,1.642,0,0,0,.577.019,1.382,1.382,0,0,0,.29-.071,1.671,1.671,0,0,0,.276-.131,1.172,1.172,0,0,0,.4-.456,1.142,1.142,0,0,0,.123-.559,1.536,1.536,0,0,0-.095-.528A2.257,2.257,0,0,0-299.091,73.839Z" transform="translate(333.073 -46.801)"/><path class="e" d="M-259.213,70.095s-.045.036-.114.1-.158.174-.268.279l-.349.366c-.121.138-.262.268-.393.407s-.271.268-.41.382c-.071.053-.126.129-.195.173a2.356,2.356,0,0,0-.185.151c-.113.1-.224.164-.3.229s-.118.1-.118.1a1.451,1.451,0,0,0,.151.01,1.381,1.381,0,0,0,.4-.036,1.8,1.8,0,0,0,.533-.207,1.455,1.455,0,0,0,.272-.174l.255-.215a2.869,2.869,0,0,0,.394-.514,2.145,2.145,0,0,0,.233-.517,1.571,1.571,0,0,0,.076-.386C-259.214,70.152-259.213,70.095-259.213,70.095Z" transform="translate(315.792 -45.248)"/><path class="e" d="M-242.443,79.673a1.291,1.291,0,0,0-.163-.32,1.159,1.159,0,0,0-.224-.257,2.592,2.592,0,0,0-.317-.235,1.551,1.551,0,0,0-.717-.2,1.081,1.081,0,0,0-.358.053,1.61,1.61,0,0,0,.241.262c.073.06.155.132.247.2a3.016,3.016,0,0,0,.3.191,2.665,2.665,0,0,0,.637.257A1.3,1.3,0,0,0-242.443,79.673Z" transform="translate(308.609 -48.801)"/><path class="e" d="M-245.115,67.194a1.908,1.908,0,0,0-.1-.434,1.168,1.168,0,0,0-.2-.394,3.109,3.109,0,0,0-.335-.406,4.245,4.245,0,0,0-.418-.3,1.3,1.3,0,0,0-.418-.174,1.641,1.641,0,0,0-.443-.071,2.195,2.195,0,0,0,.265.356c.081.1.188.181.284.3a3.507,3.507,0,0,0,.332.318c.115.1.214.212.333.3.053.048.116.086.173.129a1.874,1.874,0,0,0,.156.135A1.871,1.871,0,0,0-245.115,67.194Z" transform="translate(309.775 -43.307)"/><path class="e" d="M-336.522,85.991a1,1,0,0,0-.091-.047,1.055,1.055,0,0,0-.1-.041.566.566,0,0,1-.111-.06c-.066-.039-.145-.088-.236-.135-.045-.015-.088-.057-.137-.075a1.21,1.21,0,0,1-.146-.073,3.1,3.1,0,0,0-.611-.214,1.469,1.469,0,0,0-.345-.04,1.066,1.066,0,0,0,.155.317,1.209,1.209,0,0,0,.227.252,1.456,1.456,0,0,0,.325.214,1.15,1.15,0,0,0,.769.088.479.479,0,0,0,.228-.118C-336.549,86.019-336.522,85.991-336.522,85.991Z" transform="translate(347.633 -51.558)"/><path class="a" d="M-341.506,137.3a15.717,15.717,0,0,0,.959,7.532c.959,2.192,3.835,2.876,5.2,4.794-1.643,1.1-3.286.274-4.93-.137-2.328-.685-2.876-1.232-3.835-3.561-1.369-3.287-1.369-7.121-1.918-10.545Z" transform="translate(350.836 -72.331)"/><path class="c" d="M-334.234,98.193c.413,1.369-.548,2.6-.548,3.835,0,1.918,1.918,4.246-.822,5.341a3.081,3.081,0,0,1-1.779,4.93c.959,2.6-1.1,2.877-2.6,4.246-1.371,1.1-2.192,2.739-3.151,3.835-2.6,2.876-6.3.137-7.807-2.739-.957-2.191-2.326-3.7-2.326-6.163a19.324,19.324,0,0,0,0-5.615c-.96-4.93-1.919-7.67.82-12.463v-.136" transform="translate(354.246 -54.859)"/><path class="e" d="M-284.847,116.04a5.2,5.2,0,0,0-.265-.978c-.11-.319-.221-.637-.345-.949l-.719-1.87a16.84,16.84,0,0,1-.6-1.874,4.878,4.878,0,0,1-.132-.928,1.045,1.045,0,0,1,.2-.736l.229-.245-.272-.184a2.426,2.426,0,0,1-.416-.352,3.211,3.211,0,0,1-.34-.452,3.7,3.7,0,0,1-.265-.511,4.115,4.115,0,0,1-.174-.553,3.22,3.22,0,0,1-.07-.576l.012-.29.048-.288.092-.279.14-.261.184-.239.223-.212-.268.162c-.083.064-.157.14-.236.213s-.13.169-.2.256l-.152.289a2.532,2.532,0,0,0-.162.633,3.552,3.552,0,0,0,0,.655,3.874,3.874,0,0,0,.139.64,4.109,4.109,0,0,0,.253.608,3.642,3.642,0,0,0,.374.552,2.945,2.945,0,0,0,.5.469l-.042-.429a1.565,1.565,0,0,0-.384,1.133,4.337,4.337,0,0,0,.147,1.059,11.816,11.816,0,0,0,.686,1.932c.273.62.573,1.222.888,1.816l.477.885A8.928,8.928,0,0,1-284.847,116.04Z" transform="translate(326.909 -59.421)"/><path class="e" d="M-252.863,101.22s-.126.174-.336.487a5.983,5.983,0,0,0-.356.581,4.97,4.97,0,0,0-.392.808,4.751,4.751,0,0,0-.262,1.042c-.052.376-.081.769-.1,1.169s-.046.82-.093,1.215a2.216,2.216,0,0,1-.368,1.049,3.433,3.433,0,0,1-.906.747,2.6,2.6,0,0,0-.9,1l-.079.16-.052.139a1.792,1.792,0,0,0-.08.342,2.454,2.454,0,0,0,.034.626,8.485,8.485,0,0,0,.276,1.023,7.779,7.779,0,0,1,.211.833,3.246,3.246,0,0,1,.052.657,3.293,3.293,0,0,1-.043.428c-.017.1-.025.153-.025.153a3.124,3.124,0,0,0,.181-.568,3.391,3.391,0,0,0,.053-.691,5.1,5.1,0,0,0-.1-.89c-.056-.32-.134-.66-.169-1a2.006,2.006,0,0,1,.011-.5,1.479,1.479,0,0,1,.067-.223l.059-.137c.012-.016.041-.071.061-.105a2.21,2.21,0,0,1,.771-.78,3.859,3.859,0,0,0,1.056-.866,2.8,2.8,0,0,0,.458-1.337c.049-.444.032-.85.046-1.256s0-.787.021-1.142a5.533,5.533,0,0,1,.148-.986,7.25,7.25,0,0,1,.268-.814,6,6,0,0,1,.26-.621C-252.945,101.419-252.863,101.22-252.863,101.22Z" transform="translate(313.825 -58.159)"/><path class="e" d="M-322.281,101.687a4.321,4.321,0,0,1,.042.624,2.8,2.8,0,0,1-.084.6,10.607,10.607,0,0,1-.381,1.175c-.064.2-.145.4-.2.609l-.083.315-.044.332a1.529,1.529,0,0,0-.018.337,2.779,2.779,0,0,0,.015.32,5.282,5.282,0,0,0,.1.652l.3,1.22c.047.2.091.394.12.589a2.741,2.741,0,0,1,.037.569.965.965,0,0,1-.028.269.851.851,0,0,1-.069.251,1.3,1.3,0,0,1-.26.442l-.187.189-.23.157a4.483,4.483,0,0,1-.508.265l-.3.165.179.257a4.145,4.145,0,0,1,.37.621c.056.106.087.222.133.334s.06.231.093.346a3.144,3.144,0,0,1,.067.714c-.008.12-.026.239-.037.36-.03.116-.054.236-.09.352a2.915,2.915,0,0,1-.318.659,3.374,3.374,0,0,1-.221.3,2.444,2.444,0,0,1-.253.276,2.626,2.626,0,0,1-.287.246,3.023,3.023,0,0,1-.316.215,5.54,5.54,0,0,1-.692.347,4.023,4.023,0,0,0,.75-.236,3.415,3.415,0,0,0,.355-.18,2.986,2.986,0,0,0,.336-.22,2.9,2.9,0,0,0,.31-.26,2.279,2.279,0,0,0,.273-.3,3.268,3.268,0,0,0,.416-.712c.05-.128.089-.262.133-.394.026-.136.057-.273.076-.411a3.405,3.405,0,0,0-.013-.838,4.029,4.029,0,0,0-.093-.41c-.047-.132-.081-.269-.139-.4a4.742,4.742,0,0,0-.4-.733l-.124.423a4.987,4.987,0,0,0,.6-.3l.288-.195.258-.25a1.875,1.875,0,0,0,.378-.623,1.314,1.314,0,0,0,.091-.351,1.454,1.454,0,0,0,.034-.352,3.379,3.379,0,0,0-.053-.676c-.036-.219-.085-.429-.139-.636l-.345-1.2c-.05-.2-.093-.393-.127-.577a2.285,2.285,0,0,1-.038-.3,1.132,1.132,0,0,1-.006-.287l.014-.291.053-.3c.029-.2.1-.4.141-.6a7,7,0,0,0,.253-1.243,3,3,0,0,0,0-.644A3.615,3.615,0,0,0-322.281,101.687Z" transform="translate(342.293 -58.352)"/><path class="e" d="M-336.951,114.793s-.033.039-.082.109c-.023.035-.054.077-.082.127a1,1,0,0,1-.1.157,1.777,1.777,0,0,0-.121.151,1.028,1.028,0,0,1-.138.152,2.2,2.2,0,0,1-.321.286,2.593,2.593,0,0,1-.382.211,1.139,1.139,0,0,1-.2.086,1.791,1.791,0,0,0-.191.073c-.06.029-.119.035-.172.055s-.1.033-.14.047c-.079.03-.128.052-.128.052a1.134,1.134,0,0,0,.119.064,1.562,1.562,0,0,0,.144.061.71.71,0,0,0,.195.056,1.347,1.347,0,0,0,.516,0,1.118,1.118,0,0,0,.29-.08l.281-.147c.082-.068.159-.146.235-.218a.951.951,0,0,0,.172-.252,1.3,1.3,0,0,0,.16-.511.567.567,0,0,0,0-.2c-.005-.057-.016-.108-.023-.15C-336.936,114.842-336.951,114.793-336.951,114.793Z" transform="translate(347.924 -63.789)"/><path class="e" d="M-340.461,124.6a1.371,1.371,0,0,0-.368-.036,1.191,1.191,0,0,0-.167.011,1.261,1.261,0,0,0-.169-.005,2.708,2.708,0,0,0-.341.033,2.11,2.11,0,0,0-.353.058c-.057.009-.112.039-.164.043a1.008,1.008,0,0,0-.15.035,1.7,1.7,0,0,0-.341.135,1.115,1.115,0,0,0,.313.2.9.9,0,0,0,.356.1,2.743,2.743,0,0,0,.418.007,2.167,2.167,0,0,0,.414-.122.782.782,0,0,0,.308-.186A1.362,1.362,0,0,0-340.461,124.6Z" transform="translate(349.38 -67.84)"/><path class="d" d="M-226.335,52.465c-.457.462-.416,1.74.565,1.578C-224.607,53.849-225.318,51.442-226.335,52.465Z" transform="translate(301.306 -37.831)"/></svg>